#!OML:ASF H:\Pregnant\Project 1\Capture day 1\Session 1\femalepreg.ASF
:FULLY-SPECIFIED
:DEGREES
469
root -0.487135 16.3973 -21.6221 23.1016 -1.66107 -2.58153
lowerback -12.5541 -4.67956 -8.87647
upperback -6.97716 -5.32968 3.11113
thorax 0.695041 -2.44127 7.56235
lowerneck -20.1772 3.24242 7.97088
upperneck 22.7497 2.58297 -2.37211
head 10.83 1.57726 -1.79076
rclavicle -9.46712e-015 -4.37326e-015
rhumerus -53.4196 -14.0099 -63.2221
rradius 31.2349
rwrist -15.589
rhand -17.6121 -21.5604
rfingers 7.12502
rthumb 8.6447 -51.3634
lclavicle -9.46712e-015 -4.37326e-015
lhumerus -22.6065 -18.8048 86.1068
lradius 35.0325
lwrist 37.8165
lhand -17.8591 -3.0238
lfingers 7.12502
lthumb 8.40632 26.7889
rfemur -49.3166 15.4186 14.9933
rtibia 29.4723
rfoot -14.7953 -16.7176
rtoes -14.6829
lfemur -25.4171 -10.214 -18.784
ltibia 19.6727
lfoot -12.5873 2.3367
ltoes -21.1123
470
root -0.473623 16.4039 -21.6973 23.1082 -1.88468 -2.63932
lowerback -12.3905 -4.58673 -9.04832
upperback -6.93301 -5.19851 2.91692
thorax 0.623209 -2.37166 7.48176
lowerneck -20.4194 3.13489 7.83314
upperneck 22.8771 2.36791 -2.05214
head 10.9055 1.50832 -1.68368
rclavicle 4.49253e-014 5.96354e-015
rhumerus -53.4683 -14.1485 -63.5175
rradius 31.279
rwrist -16.1136
rhand -17.209 -21.5226
rfingers 7.12502
rthumb 9.03371 -51.3092
lclavicle 4.49253e-014 5.96354e-015
lhumerus -22.3845 -19.1349 86.1414
lradius 35.3563
lwrist 37.782
lhand -17.6395 -3.25887
lfingers 7.12502
lthumb 8.61824 26.5452
rfemur -49.3917 15.0149 15.2956
rtibia 29.5638
rfoot -14.5869 -16.4652
rtoes -14.5473
lfemur -25.7534 -10.2239 -18.7415
ltibia 19.7744
lfoot -12.3687 2.54866
ltoes -21.1312
471
root -0.461134 16.41 -21.7737 23.13 -2.0784 -2.68188
lowerback -12.2504 -4.50318 -9.19982
upperback -6.88261 -5.07985 2.71618
thorax 0.571254 -2.31002 7.37828
lowerneck -20.6553 3.03672 7.70297
upperneck 22.9803 2.17081 -1.75776
head 10.9733 1.44523 -1.58427
rclavicle -2.90723e-014 -4.77083e-015
rhumerus -53.4383 -14.1899 -63.9309
rradius 31.2919
rwrist -16.6192
rhand -16.7809 -21.5026
rfingers 7.12502
rthumb 9.4467 -51.2709
lclavicle -2.90723e-014 -4.77083e-015
lhumerus -22.1734 -19.3888 86.1426
lradius 35.6709
lwrist 37.7665
lhand -17.4669 -3.57786
lfingers 7.12502
lthumb 8.78482 26.2193
rfemur -49.4625 14.5388 15.6471
rtibia 29.773
rfoot -14.1343 -16.2394
rtoes -14.7569
lfemur -26.1307 -10.2433 -18.6969
ltibia 19.8964
lfoot -12.1461 2.73176
ltoes -21.1333
472
root -0.450068 16.4151 -21.8509 23.1617 -2.2464 -2.71132
lowerback -12.1307 -4.42361 -9.33137
upperback -6.82874 -4.96664 2.50381
thorax 0.532952 -2.25246 7.24838
lowerneck -20.8752 2.94183 7.58974
upperneck 23.0581 1.98111 -1.48921
head 11.0306 1.38387 -1.49589
rclavicle 2.37299e-014 4.77083e-015
rhumerus -53.3476 -14.1771 -64.4274
rradius 31.2621
rwrist -17.0594
rhand -16.317 -21.4804
rfingers 7.12502
rthumb 9.89431 -51.2279
lclavicle 2.37299e-014 4.77083e-015
lhumerus -21.9814 -19.603 86.1145
lradius 35.9726
lwrist 37.7876
lhand -17.3163 -3.96758
lfingers 7.12502
lthumb 8.93012 25.8234
rfemur -49.527 14.0355 16.026
rtibia 30.1185
rfoot -13.6055 -16.0655
rtoes -14.9707
lfemur -26.5523 -10.2608 -18.6526
ltibia 20.0604
lfoot -11.9347 2.88855
ltoes -21.1538
473
root -0.439659 16.4185 -21.9272 23.1801 -2.40969 -2.73653
lowerback -12.0305 -4.34139 -9.44036
upperback -6.76306 -4.85006 2.28778
thorax 0.515733 -2.19524 7.10046
lowerneck -21.0782 2.84955 7.48681
upperneck 23.1112 1.80157 -1.25076
head 11.0772 1.32422 -1.41867
rclavicle 6.21202e-015 -1.11319e-014
rhumerus -53.1994 -14.0966 -64.9905
rradius 31.201
rwrist -17.4154
rhand -15.801 -21.4635
rfingers 7.12502
rthumb 10.3922 -51.1867
lclavicle 6.21202e-015 -1.11319e-014
lhumerus -21.8123 -19.7529 86.0716
lradius 36.2557
lwrist 37.8252
lhand -17.2129 -4.50207
lfingers 7.12502
lthumb 9.02994 25.2847
rfemur -49.5624 13.5226 16.4374
rtibia 30.6163
rfoot -13.1717 -15.9247
rtoes -14.87
lfemur -26.9829 -10.2806 -18.6103
ltibia 20.2794
lfoot -11.7509 3.04742
ltoes -21.1585
474
root -0.430022 16.42 -22.0026 23.1864 -2.57204 -2.75708
lowerback -11.9414 -4.25472 -9.53244
upperback -6.69307 -4.72815 2.06989
thorax 0.507339 -2.13638 6.94087
lowerneck -21.2516 2.75434 7.38441
upperneck 23.1384 1.62668 -1.03407
head 11.1094 1.26382 -1.34892
rclavicle -2.49475e-014 -1.66979e-014
rhumerus -53.0113 -13.9661 -65.5908
rradius 31.1103
rwrist -17.6627
rhand -15.2219 -21.4035
rfingers 7.12502
rthumb 10.9507 -51.0979
lclavicle -2.49475e-014 -1.66979e-014
lhumerus -21.6731 -19.9149 86.0314
lradius 36.5114
lwrist 37.9516
lhand -17.1741 -4.98583
lfingers 7.12502
lthumb 9.06735 24.7993
rfemur -49.5828 13.0192 16.8628
rtibia 31.2778
rfoot -12.875 -15.8302
rtoes -14.428
lfemur -27.4294 -10.2944 -18.5738
ltibia 20.5575
lfoot -11.5946 3.20537
ltoes -21.1801
475
root -0.421001 16.4199 -22.0769 23.1818 -2.7288 -2.77165
lowerback -11.8474 -4.1747 -9.62664
upperback -6.63537 -4.61648 1.87341
thorax 0.487278 -2.08144 6.80455
lowerneck -21.396 2.6679 7.26931
upperneck 23.1601 1.47978 -0.847797
head 11.1359 1.21122 -1.28405
rclavicle 1.95803e-014 1.98785e-014
rhumerus -52.8009 -13.7393 -66.2047
rradius 31.0147
rwrist -17.8183
rhand -14.5673 -21.3112
rfingers 7.12502
rthumb 11.5821 -50.9712
lclavicle 1.95803e-014 1.98785e-014
lhumerus -21.5846 -20.0317 86.0199
lradius 36.7287
lwrist 38.1572
lhand -17.1952 -5.3632
lfingers 7.12502
lthumb 9.04695 24.4228
rfemur -49.605 12.5399 17.2851
rtibia 32.114
rfoot -12.7004 -15.7958
rtoes -13.8307
lfemur -27.8879 -10.2987 -18.5451
ltibia 20.8874
lfoot -11.4658 3.35219
ltoes -21.2062
476
root -0.412626 16.4182 -22.1503 23.1735 -2.88899 -2.78063
lowerback -11.7674 -4.09242 -9.71165
upperback -6.58249 -4.50176 1.68269
thorax 0.469354 -2.02507 6.66893
lowerneck -21.5124 2.5815 7.14527
upperneck 23.1667 1.34276 -0.675364
head 11.1523 1.16038 -1.22139
rclavicle 2.81777e-014 -4.77083e-015
rhumerus -52.5774 -13.4726 -66.8198
rradius 30.9193
rwrist -17.8592
rhand -13.8576 -21.1804
rfingers 7.12502
rthumb 12.2664 -50.8007
lclavicle 2.81777e-014 -4.77083e-015
lhumerus -21.5679 -20.1179 86.0212
lradius 36.9688
lwrist 38.4129
lhand -17.2909 -5.6458
lfingers 7.12502
lthumb 8.95462 24.1442
rfemur -49.6472 12.0899 17.6936
rtibia 33.1271
rfoot -12.5362 -15.8098
rtoes -13.42
lfemur -28.3599 -10.2877 -18.5247
ltibia 21.2567
lfoot -11.3556 3.48863
ltoes -21.2356
477
root -0.404782 16.4154 -22.2226 23.1569 -3.04409 -2.77851
lowerback -11.6866 -4.01279 -9.79766
upperback -6.53944 -4.39139 1.50391
thorax 0.442563 -1.97 6.54628
lowerneck -21.6062 2.49894 7.00905
upperneck 23.1687 1.2214 -0.516243
head 11.1635 1.11383 -1.1593
rclavicle 1.69961e-014 1.11319e-014
rhumerus -52.3581 -13.1394 -67.439
rradius 30.8542
rwrist -17.8235
rhand -13.101 -21.0127
rfingers 7.12502
rthumb 12.9959 -50.5879
lclavicle 1.69961e-014 1.11319e-014
lhumerus -21.6448 -20.0765 86.0368
lradius 37.2682
lwrist 38.6394
lhand -17.4748 -5.92295
lfingers 7.12502
lthumb 8.77722 23.8745
rfemur -49.7093 11.6795 18.0685
rtibia 34.3149
rfoot -12.3402 -15.8658
rtoes -13.3352
lfemur -28.8336 -10.265 -18.5177
ltibia 21.6481
lfoot -11.2584 3.60336
ltoes -21.2582
478
root -0.397584 16.4118 -22.2939 23.1348 -3.20356 -2.7697
lowerback -11.6235 -3.92895 -9.87371
upperback -6.49739 -4.2747 1.32605
thorax 0.422963 -1.9123 6.41886
lowerneck -21.6925 2.4196 6.87686
upperneck 23.1689 1.10731 -0.368686
head 11.1734 1.06949 -1.10102
rclavicle 1.14798e-014 -7.95139e-016
rhumerus -52.1527 -12.7455 -68.0821
rradius 30.8476
rwrist -17.766
rhand -12.3154 -20.8164
rfingers 7.12502
rthumb 13.753 -50.3419
lclavicle 1.14798e-014 -7.95139e-016
lhumerus -21.7901 -20.0118 86.0581
lradius 37.5938
lwrist 38.896
lhand -17.7453 -5.99916
lfingers 7.12502
lthumb 8.51612 23.8091
rfemur -49.7914 11.3172 18.4087
rtibia 35.6623
rfoot -12.0851 -15.9389
rtoes -13.6414
lfemur -29.3004 -10.2267 -18.5207
ltibia 22.046
lfoot -11.169 3.70276
ltoes -21.2664
479
root -0.390565 16.4077 -22.3641 23.1049 -3.36744 -2.75535
lowerback -11.5759 -3.84307 -9.94017
upperback -6.45594 -4.15481 1.15641
thorax 0.411069 -1.85352 6.29436
lowerneck -21.7647 2.34319 6.7395
upperneck 23.1614 1.00432 -0.234042
head 11.1784 1.02793 -1.04497
rclavicle -3.0265e-014 -1.66979e-014
rhumerus -51.9608 -12.2717 -68.7499
rradius 30.9162
rwrist -17.7252
rhand -11.5338 -20.6228
rfingers 7.12502
rthumb 14.5063 -50.0957
lclavicle -3.0265e-014 -1.66979e-014
lhumerus -22.0466 -19.8306 86.0853
lradius 38.0338
lwrist 39.0939
lhand -18.0787 -5.96249
lfingers 7.12502
lthumb 8.19435 23.8586
rfemur -49.885 10.9847 18.7216
rtibia 37.152
rfoot -11.843 -15.978
rtoes -14.0336
lfemur -29.7476 -10.1783 -18.5325
ltibia 22.4356
lfoot -11.082 3.78822
ltoes -21.2311
480
root -0.383845 16.4032 -22.4333 23.0664 -3.52988 -2.73584
lowerback -11.5395 -3.75287 -9.99034
upperback -6.41505 -4.02963 0.986478
thorax 0.403229 -1.79266 6.16049
lowerneck -21.8258 2.26775 6.61155
upperneck 23.1486 0.904147 -0.111975
head 11.1799 0.986785 -0.994705
rclavicle -1.55052e-014 3.02153e-014
rhumerus -51.7785 -11.8227 -69.3798
rradius 31.0096
rwrist -17.6271
rhand -10.7702 -20.4197
rfingers 7.12502
rthumb 15.2419 -49.8382
lclavicle -1.55052e-014 3.02153e-014
lhumerus -22.3824 -19.6159 86.1121
lradius 38.5346
lwrist 39.2876
lhand -18.456 -5.88986
lfingers 7.12502
lthumb 7.83022 23.9451
rfemur -49.9797 10.6791 19.0091
rtibia 38.7583
rfoot -11.6957 -15.9622
rtoes -14.1727
lfemur -30.175 -10.1202 -18.5536
ltibia 22.8096
lfoot -10.9936 3.85617
ltoes -21.1912
481
root -0.377089 16.3985 -22.5016 23.0135 -3.68495 -2.71088
lowerback -11.505 -3.66053 -10.0256
upperback -6.3716 -3.90283 0.821887
thorax 0.399078 -1.73158 6.02389
lowerneck -21.886 2.1941 6.48852
upperneck 23.1323 0.809225 -0.00468396
head 11.1803 0.946505 -0.94986
rclavicle 9.54166e-015 1.27222e-014
rhumerus -51.5988 -11.3865 -69.9737
rradius 31.1383
rwrist -17.5159
rhand -10.049 -20.2533
rfingers 7.12502
rthumb 15.9365 -49.6177
lclavicle 9.54166e-015 1.27222e-014
lhumerus -22.7388 -19.3943 86.1451
lradius 38.9879
lwrist 39.4979
lhand -18.8413 -5.85774
lfingers 7.12502
lthumb 7.45829 23.9908
rfemur -50.0617 10.3812 19.2803
rtibia 40.4572
rfoot -11.666 -15.8622
rtoes -13.9857
lfemur -30.5687 -10.066 -18.5799
ltibia 23.1624
lfoot -10.9064 3.91002
ltoes -21.0861
482
root -0.370337 16.3934 -22.5692 22.9524 -3.82779 -2.68017
lowerback -11.4727 -3.56645 -10.044
upperback -6.32969 -3.77528 0.660034
thorax 0.394333 -1.67041 5.88072
lowerneck -21.9376 2.11984 6.37298
upperneck 23.1084 0.714802 0.0920542
head 11.1766 0.905613 -0.910097
rclavicle -4.07509e-015 1.27222e-014
rhumerus -51.4146 -11.022 -70.4963
rradius 31.264
rwrist -17.3491
rhand -9.39355 -20.1089
rfingers 7.12502
rthumb 16.5676 -49.4217
lclavicle -4.07509e-015 1.27222e-014
lhumerus -23.0707 -19.2359 86.1874
lradius 39.3089
lwrist 39.7858
lhand -19.2112 -5.81365
lfingers 7.12502
lthumb 7.10126 24.0472
rfemur -50.1286 10.0964 19.528
rtibia 42.2209
rfoot -11.7369 -15.6675
rtoes -13.5131
lfemur -30.9398 -10.0206 -18.6094
ltibia 23.4926
lfoot -10.8144 3.9527
ltoes -20.9658
